Coordinates
version=1
nRows=21
nColumns=22
inDegrees=yes

Units are S.I. units (second, meters, Newtons, ...)
If the header above contains a line with 'inDegrees', this indicates whether rotational values are in degrees (yes) or radians (no).

endheader
time	pelvis_tilt	pelvis_list	pelvis_rotation	pelvis_tx	pelvis_ty	pelvis_tz	hip_flexion_r	hip_adduction_r	hip_rotation_r	knee_angle_r	ankle_angle_r	subtalar_angle_r	hip_flexion_l	hip_adduction_l	hip_rotation_l	knee_angle_l	ankle_angle_l	subtalar_angle_l	lumbar_extension	lumbar_bending	lumbar_rotation
      0.01000000	    -14.16592306	     -0.28297554	     -7.76918786	     -0.73386433	      0.98020270	      0.21696668	     21.99815866	      0.68784429	     -5.76606330	    -17.26831807	     14.34284929	     -4.08265750	     20.31973843	     -1.53951599	     -6.06031250	    -15.49427679	     16.60992772	     -2.32092069	      7.92722979	      2.65057444	      3.33231167
      0.02000000	    -14.16292094	     -0.28503861	     -7.77200845	     -0.73383330	      0.98021198	      0.21691852	     21.99349816	      0.68752390	     -5.76510642	    -17.27252654	     14.34034012	     -4.08226003	     20.31582490	     -1.53948852	     -6.06013705	    -15.49709266	     16.61147194	     -2.32035438	      7.94095619	      2.65300341	      3.32925051
      0.03000000	    -14.20264867	     -0.29606395	     -7.76891109	     -0.73381037	      0.98016932	      0.21685365	     22.02465314	      0.70080103	     -5.76681717	    -17.25987431	     14.29624074	     -4.06820825	     20.35563173	     -1.55133786	     -6.04298490	    -15.49594445	     16.63335846	     -2.29992646	      8.00939020	      2.67310803	      3.30681957
      0.04000000	    -14.19907651	     -0.29874609	     -7.76917175	     -0.73378316	      0.98019222	      0.21678335	     22.02043845	      0.69889908	     -5.76627924	    -17.26560321	     14.29609176	     -4.06803319	     20.35173202	     -1.55047164	     -6.04313166	    -15.49891741	     16.63272382	     -2.29941718	      8.02446114	      2.67496154	      3.30528600
      0.05000000	    -14.19665595	     -0.30135775	     -7.76880571	     -0.73375590	      0.98021861	      0.21670239	     22.01695295	      0.69604957	     -5.76659568	    -17.26908048	     14.29499431	     -4.06747982	     20.34808250	     -1.54888237	     -6.04284828	    -15.50030947	     16.63234204	     -2.29862732	      8.04170700	      2.67797880	      3.30471163
      0.06000000	    -14.27504786	     -0.29904686	     -7.75235021	     -0.73377219	      0.98013049	      0.21658250	     22.10002929	      0.69185233	     -5.78518855	    -17.26787253	     14.25617930	     -4.03651413	     20.43107545	     -1.54279620	     -5.99165536	    -15.49242120	     16.61610474	     -2.26659869	      8.15833855	      2.68725383	      3.28877559
      0.07000000	    -14.27146983	     -0.30178092	     -7.75085267	     -0.73375444	      0.98016025	      0.21649644	     22.09572633	      0.68803390	     -5.78589548	    -17.26976421	     14.25696854	     -4.03615009	     20.42898785	     -1.54121722	     -5.99216504	    -15.49791666	     16.61674868	     -2.26637004	      8.17223155	      2.68962307	      3.29268154
      0.08000000	    -14.33842570	     -0.30127696	     -7.74714630	     -0.73378693	      0.98006903	      0.21639974	     22.17123057	      0.68795539	     -5.80304501	    -17.27374711	     14.25024869	     -4.00568654	     20.51500902	     -1.54486067	     -5.98085675	    -15.52223070	     16.63845615	     -2.24636693	      8.26927503	      2.70026004	      3.31530888
      0.09000000	    -14.33460108	     -0.30224563	     -7.74724567	     -0.73378090	      0.98009226	      0.21631570	     22.16769837	      0.68270094	     -5.80224686	    -17.27457596	     14.24981842	     -4.00521048	     20.51474582	     -1.54156372	     -5.97861085	    -15.52976286	     16.63711412	     -2.24601421	      8.28004642	      2.70381486	      3.31981836
      0.10000000	    -14.41073352	     -0.28781279	     -7.74762105	     -0.73387158	      0.97997350	      0.21623164	     22.26457687	      0.67305387	     -5.79590351	    -17.28953706	     14.23240972	     -3.97644810	     20.62263784	     -1.53324508	     -5.95641361	    -15.56928787	     16.63214829	     -2.22884482	      8.37929001	      2.69958688	      3.35203990
      0.11000000	    -14.40784894	     -0.28762913	     -7.75069209	     -0.73387096	      0.97998598	      0.21616356	     22.26212888	      0.66800425	     -5.79722514	    -17.28907408	     14.23354173	     -3.97617869	     20.62350871	     -1.53031499	     -5.95522167	    -15.57688091	     16.63239838	     -2.22871344	      8.38891038	      2.70431998	      3.35668437
      0.12000000	    -14.42049222	     -0.28380739	     -7.75457489	     -0.73391141	      0.97996557	      0.21611071	     22.27447780	      0.66278278	     -5.80770918	    -17.27756144	     14.23731386	     -3.97217070	     20.65483400	     -1.52752751	     -5.95154319	    -15.60690819	     16.63827381	     -2.22775626	      8.40892061	      2.70113796	      3.39827885
      0.13000000	    -14.52025260	     -0.27248494	     -7.77944780	     -0.73401862	      0.97979161	      0.21609203	     22.41084585	      0.67032749	     -5.77592266	    -17.31881354	     14.22968145	     -3.94568319	     20.79189053	     -1.54015763	     -5.98900555	    -15.65863506	     16.66039159	     -2.21831304	      8.53492079	      2.71281657	      3.42392594
      0.14000000	    -14.51818217	     -0.27111976	     -7.78456731	     -0.73402350	      0.97979977	      0.21604500	     22.40937528	      0.66633163	     -5.77804827	    -17.31725832	     14.22977206	     -3.94530541	     20.79308560	     -1.53644364	     -5.98651762	    -15.66476292	     16.65929924	     -2.21794805	      8.54131336	      2.71765253	      3.42899161
      0.15000000	    -14.52477884	     -0.26818570	     -7.79216669	     -0.73404834	      0.97979515	      0.21601535	     22.41558380	      0.66351315	     -5.78753407	    -17.30790459	     14.22755377	     -3.94147025	     20.81055075	     -1.53512037	     -5.98957153	    -15.68308420	     16.65779059	     -2.21658670	      8.55318243	      2.71683953	      3.46827125
      0.16000000	    -14.52348710	     -0.26674842	     -7.79859023	     -0.73404881	      0.97980509	      0.21597185	     22.41609280	      0.66045718	     -5.78701237	    -17.30913555	     14.22659103	     -3.94083855	     20.81064743	     -1.53152474	     -5.99216096	    -15.68692695	     16.65796916	     -2.21636772	      8.55908760	      2.72455896	      3.47097376
      0.17000000	    -14.54010240	     -0.25689943	     -7.84351089	     -0.73407963	      0.97978446	      0.21600016	     22.45099251	      0.66685566	     -5.74526655	    -17.32786159	     14.20936065	     -3.92304463	     20.83319766	     -1.54227476	     -6.07734976	    -15.70080382	     16.66800853	     -2.21399639	      8.58213640	      2.72900940	      3.53520758
      0.18000000	    -14.53855686	     -0.25462528	     -7.84974473	     -0.73408223	      0.97979713	      0.21595841	     22.45000875	      0.66292034	     -5.74563619	    -17.32577489	     14.20974231	     -3.92255167	     20.83280203	     -1.53768415	     -6.07819835	    -15.70399449	     16.66738419	     -2.21388371	      8.58426751	      2.73571817	      3.53914894
      0.19000000	    -14.52773832	     -0.24737572	     -7.87430044	     -0.73408441	      0.97982543	      0.21595651	     22.44250804	      0.65916684	     -5.74170171	    -17.32411708	     14.20675174	     -3.91496973	     20.82405385	     -1.53648080	     -6.11691622	    -15.71335066	     16.65881383	     -2.21785962	      8.57415065	      2.73337275	      3.59892303
      0.20000000	    -14.52354709	     -0.24515698	     -7.88217280	     -0.73406796	      0.97983999	      0.21591154	     22.44002425	      0.65465865	     -5.73767331	    -17.32727842	     14.20614771	     -3.91427613	     20.81951656	     -1.53164641	     -6.12076084	    -15.71644672	     16.65822098	     -2.21858710	      8.57563559	      2.74343637	      3.60074577
      0.21000000	    -14.45770957	     -0.23315328	     -7.95712438	     -0.73402910	      0.97995287	      0.21599824	     22.38293128	      0.66043376	     -5.65799288	    -17.33952306	     14.20498839	     -3.89198468	     20.73418636	     -1.53872148	     -6.24216464	    -15.70449456	     16.66178099	     -2.24848099	      8.49881884	      2.73752668	      3.69766925
